<?xml version="1.0" encoding="UTF-8" standalone="no"?>
<svg
   xmlns:dc="http://purl.org/dc/elements/1.1/"
   xmlns:cc="http://creativecommons.org/ns#"
   xmlns:rdf="http://www.w3.org/1999/02/22-rdf-syntax-ns#"
   xmlns:svg="http://www.w3.org/2000/svg"
   xmlns="http://www.w3.org/2000/svg"
   id="svg854"
   version="1.1"
   viewBox="0 0 108.69362 96.209244"
   height="96.209244mm"
   width="108.69362mm">
  <defs
     id="defs848" />
  <metadata
     id="metadata851">
    <rdf:RDF>
      <cc:Work
         rdf:about="">
        <dc:format>image/svg+xml</dc:format>
        <dc:type
           rdf:resource="http://purl.org/dc/dcmitype/StillImage" />
        <dc:title></dc:title>
      </cc:Work>
    </rdf:RDF>
  </metadata>
  <g
     transform="translate(-61.313906,-62.175143)"
     id="layer1">
    <path
       id="path826"
       d="m 78.174058,157.30837 c -1.408276,-0.67469 -2.718377,-1.86868 -3.46935,-3.16189 -1.178556,-2.02951 -1.206619,-2.54182 -1.206619,-22.02826 v -19.95046 l -3.7504,-3.61517 c -7.102137,-6.84606 -9.734655,-14.683562 -7.837083,-23.332464 1.335942,-6.08906 6.103074,-12.71785 11.587483,-16.112609 14.224455,-8.804771 65.548991,-9.355261 82.877921,-0.888971 4.62515,2.259701 8.63102,6.31041 11.18328,11.30848 1.83791,3.59915 2.14256,4.74563 2.39365,9.00776 0.49626,8.423792 -2.3908,15.236594 -8.67722,20.476274 l -2.84741,2.37331 -0.008,20.14666 c -0.008,19.90445 -0.0244,20.17236 -1.26056,22.2847 -0.70151,1.19876 -2.22159,2.66999 -3.46021,3.34893 l -2.20907,1.21091 -35.52614,0.008 c -34.52198,0.008 -35.590097,-0.0223 -37.788871,-1.07563 z m 74.744742,-4.06137 1.34575,-1.38553 0.27754,-20.9101 0.27756,-20.9101 3.924,-3.62641 c 8.01043,-7.402904 9.91237,-15.965895 5.58035,-25.123974 -4.50001,-9.5132 -13.88944,-13.412819 -36.98161,-15.359179 -17.31789,-1.459691 -41.916144,1.182819 -50.510046,5.426099 -3.592922,1.77404 -7.604766,5.98185 -9.61065,10.08013 -1.626417,3.32298 -1.772496,4.06512 -1.772496,9.005179 0,4.999943 0.129992,5.639292 1.823326,8.968322 1.303215,2.562093 2.886648,4.527393 5.550959,6.889743 l 3.727635,3.30511 0.277546,21.21717 0.277549,21.21716 1.557467,1.29597 1.55747,1.29594 h 35.67597 35.67597 z m -69.87306,-4.6316 c -0.494622,-0.47872 -0.666115,-5.87942 -0.666115,-20.97753 v -20.33282 l -1.764951,-0.9152 c -3.154138,-1.63553 -6.505206,-4.9947 -8.069338,-8.088864 -1.276364,-2.524911 -1.523595,-3.697499 -1.488572,-7.0602 0.05058,-4.85782 1.328804,-7.99214 4.704904,-11.53698 4.966655,-5.21491 11.66189,-7.45303 25.203662,-8.42519 10.48315,-0.752589 31.42071,-0.267339 38.58918,0.894371 9.29642,1.506549 16.40483,5.876989 19.51878,12.000679 1.01906,2.00404 1.27113,3.39964 1.27586,7.064019 0.004,3.939943 -0.20225,4.950611 -1.51072,7.36518 -1.70365,3.143785 -5.30254,6.745825 -7.70028,7.707075 l -1.59193,0.6382 v 20.26685 c 0,18.9519 -0.0659,20.32454 -1.01513,21.15597 -0.91978,0.80564 -4.01096,0.88913 -32.91718,0.88913 -24.072581,0 -32.065535,-0.15818 -32.56817,-0.64469 z m 62.61482,-22.22351 c 0,-12.43192 0.20959,-20.02383 0.57091,-20.67721 0.31399,-0.56784 1.93054,-1.87422 3.59232,-2.90308 10.67542,-6.609355 9.21998,-19.490404 -2.80423,-24.818234 -6.35059,-2.81391 -9.41762,-3.1233 -31.05663,-3.13283 -21.820257,-0.0101 -25.662319,0.38274 -31.729097,3.24026 -3.256383,1.53381 -6.914778,4.75102 -8.255108,7.25958 -1.212127,2.26861 -1.633636,6.71575 -0.889166,9.381149 0.859571,3.077491 3.645701,6.487815 6.650348,8.140235 1.420405,0.78117 2.894795,1.79077 3.276424,2.2436 0.526994,0.6253 0.693869,5.55772 0.693869,20.50913 0,10.82719 0.166519,19.84699 0.370064,20.04397 0.203528,0.19696 13.692367,0.35817 29.975176,0.35817 h 29.60512 z"
       style=";stroke-width:0.54609728" />
  </g>
</svg>
